<?xml version="1.0" encoding="utf-8"?>
<!-- Generator: Adobe Illustrator 28.3.0, SVG Export Plug-In . SVG Version: 6.00 Build 0)  -->
<svg version="1.1" id="Vrstva_2_00000055699234771484577830000007753016133059529122_"
	 xmlns="http://www.w3.org/2000/svg" xmlns:xlink="http://www.w3.org/1999/xlink" x="0px" y="0px" viewBox="0 0 60.1 81.9"
	 style="enable-background:new 0 0 60.1 81.9;" xml:space="preserve">
<style type="text/css">
	.st0{fill:#B0B0B0;}
	.st1{fill:#FFFFFF;}
</style>
<g id="Layer_2">
	<g id="Layer_1-2">
		<path class="st0" d="M60.1,27.4c0,12-19,42.3-26.8,52.9c-1.5,2.1-4.9,2.1-6.5,0C19,69.7,0,39.5,0,27.4C0,12.3,13.5,0,30.1,0
			S60.1,12.3,60.1,27.4z"/>
	</g>
</g>
<path class="st1" d="M15.3,12.7c3.7-3.9,8.8-5.8,15.5-5.8c6.2,0,11,1.4,14.4,4.1c3.4,2.8,5.1,6.6,5.1,11.5c0,3-0.7,5.5-2.1,7.5
	c-1.4,2-3.4,4.2-6,6.6c-2.2,2-3.7,3.7-4.8,5.1c-1,1.4-1.5,3-1.5,4.8H21.7c0-2.3,0.3-4.3,1-6c0.7-1.7,1.4-3.1,2.3-4.2
	c0.8-1.1,2-2.4,3.4-3.8c1.4-1.4,2.4-2.5,3.1-3.5c0.7-0.9,1-2,1-3.3s-0.3-2.2-0.8-2.8c-0.5-0.6-1.4-0.9-2.7-0.9
	c-1.6,0-2.7,0.5-3.5,1.6c-0.7,1.1-1.1,2.8-1.1,5.2H9.7C9.7,22,11.6,16.6,15.3,12.7L15.3,12.7z M34.7,53.6c1.6,1.6,2.4,3.7,2.4,6.3
	c0,2.6-0.8,4.8-2.4,6.4c-1.6,1.6-3.7,2.5-6.3,2.5s-4.6-0.8-6.2-2.5c-1.6-1.6-2.4-3.8-2.4-6.4s0.8-4.7,2.4-6.3
	c1.6-1.6,3.7-2.5,6.2-2.5S33.1,52,34.7,53.6z"/>
</svg>
