<?xml version="1.0" encoding="utf-8"?>
<!-- Generator: Adobe Illustrator 23.0.1, SVG Export Plug-In . SVG Version: 6.00 Build 0)  -->
<svg version="1.1" id="Vrstva_1" xmlns="http://www.w3.org/2000/svg" xmlns:xlink="http://www.w3.org/1999/xlink" x="0px" y="0px"
	 viewBox="0 0 80 80" style="enable-background:new 0 0 80 80;" xml:space="preserve">
<style type="text/css">
	.st0{clip-path:url(#SVGID_2_);}
</style>
<g>
	<defs>
		<rect id="SVGID_1_" x="0" width="80" height="80"/>
	</defs>
	<clipPath id="SVGID_2_">
		<use xlink:href="#SVGID_1_"  style="overflow:visible;"/>
	</clipPath>
	<g class="st0">
		<path d="M79.12,13.79l-5.1,5.1L61.1,5.98l5.1-5.1c1.16-1.16,3.06-1.17,4.23,0l8.69,8.69C80.29,10.73,80.29,12.63,79.12,13.79z"/>
		<path d="M56.45,10.63l12.92,12.92L25.75,67.17c-1.17,1.17-3.06,1.17-4.23,0l-8.69-8.69c-1.17-1.17-1.17-3.06,0-4.23L56.45,10.63z"
			/>
		<path d="M8.44,61.17l10.39,10.39c0.73,0.73,0.45,1.96-0.51,2.31L1.89,79.91c-1.12,0.41-2.22-0.68-1.8-1.8l6.04-16.43
			C6.48,60.71,7.72,60.44,8.44,61.17z"/>
	</g>
</g>
</svg>
