<?xml version="1.0" encoding="utf-8"?>
<!-- Generator: Adobe Illustrator 23.0.1, SVG Export Plug-In . SVG Version: 6.00 Build 0)  -->
<svg version="1.1" id="Vrstva_1" xmlns="http://www.w3.org/2000/svg" xmlns:xlink="http://www.w3.org/1999/xlink" x="0px" y="0px"
	 viewBox="0 0 109.46 103.55" style="enable-background:new 0 0 109.46 103.55;" xml:space="preserve">
<path d="M90.3,4.05C90.25,1.51,90.12,0,90.12,0H54.73H19.34c0,0-0.13,1.51-0.18,4.05H0l0.09,4.06C0.11,8.76,0.52,24.03,7.02,36.2
	c4.99,9.35,19.26,15.37,27.44,18.16c6.2,7.14,12.29,11.18,12.29,11.18v4.01h-3.01v9.03H28.25v24.97h26.48H81.2V78.58H65.71v-9.03
	H62.7v-4.01c0,0,6.09-4.04,12.29-11.18c8.18-2.79,22.45-8.81,27.44-18.16c6.5-12.18,6.92-27.44,6.93-28.09l0.09-4.06H90.3z
	 M14.04,32.46c-3.74-7-5.15-15.52-5.69-20.46h10.94c0.37,7.08,1.55,16.34,4.73,25.12c0.66,1.81,1.42,3.55,2.26,5.21
	C20.98,39.64,16.07,36.27,14.04,32.46z M95.42,32.46c-2.04,3.81-6.94,7.18-12.24,9.87c0.84-1.66,1.6-3.4,2.26-5.21
	c3.19-8.78,4.36-18.04,4.73-25.12h10.94C100.58,16.93,99.16,25.46,95.42,32.46z"/>
</svg>
