<?xml version="1.0" encoding="utf-8"?>
<!-- Generator: Adobe Illustrator 23.0.1, SVG Export Plug-In . SVG Version: 6.00 Build 0)  -->
<svg version="1.1" id="Vrstva_1" xmlns="http://www.w3.org/2000/svg" xmlns:xlink="http://www.w3.org/1999/xlink" x="0px" y="0px"
	 viewBox="0 0 91.79 86.83" style="enable-background:new 0 0 91.79 86.83;" xml:space="preserve">
<style type="text/css">
	.st0{fill:url(#SVGID_1_);}
</style>
<linearGradient id="SVGID_1_" gradientUnits="userSpaceOnUse" x1="0" y1="43.4168" x2="91.7876" y2="43.4168">
	<stop  offset="3.220609e-03" style="stop-color:#D78828"/>
	<stop  offset="0.5725" style="stop-color:#954113"/>
	<stop  offset="1" style="stop-color:#610903"/>
</linearGradient>
<path class="st0" d="M75.73,3.4C75.68,1.26,75.57,0,75.57,0H45.89H16.21c0,0-0.11,1.26-0.15,3.4H0l0.08,3.41
	c0.01,0.54,0.36,13.34,5.81,23.55c4.19,7.84,16.15,12.89,23.01,15.23c5.2,5.99,10.31,9.37,10.31,9.37v3.36h-2.52v7.57H23.69v20.94
	h22.2h22.2V65.9H55.1v-7.57h-2.52v-3.36c0,0,5.11-3.39,10.31-9.37c6.86-2.34,18.82-7.38,23.01-15.23
	c5.45-10.21,5.8-23.01,5.81-23.55l0.08-3.41H75.73z M11.77,27.22C8.64,21.35,7.45,14.2,7,10.06h9.17c0.31,5.93,1.3,13.7,3.97,21.06
	c0.55,1.52,1.19,2.97,1.89,4.37C17.59,33.24,13.48,30.42,11.77,27.22z M80.02,27.22c-1.71,3.2-5.82,6.02-10.26,8.27
	c0.7-1.39,1.34-2.85,1.89-4.37c2.67-7.36,3.65-15.13,3.97-21.06h9.17C84.34,14.2,83.15,21.35,80.02,27.22z"/>
</svg>
