<?xml version="1.0" encoding="utf-8"?>
<!-- Generator: Adobe Illustrator 23.0.1, SVG Export Plug-In . SVG Version: 6.00 Build 0)  -->
<svg version="1.1" id="Vrstva_1" xmlns="http://www.w3.org/2000/svg" xmlns:xlink="http://www.w3.org/1999/xlink" x="0px" y="0px"
	 viewBox="0 0 80 80" style="enable-background:new 0 0 80 80;" xml:space="preserve">
<path d="M77.25,33.56L65,32.54c-0.52-1.73-1.2-3.39-2.05-4.94l7.94-9.38c1.01-1.19,0.94-2.96-0.17-4.06l-4.87-4.87
	c-1.1-1.1-2.87-1.18-4.06-0.17l-9.38,7.94c-1.56-0.84-3.21-1.53-4.94-2.04L46.44,2.75C46.31,1.2,45.01,0,43.44,0h-6.89
	c-1.56,0-2.86,1.2-2.99,2.75l-1.02,12.25c-1.73,0.52-3.38,1.2-4.94,2.04l-9.38-7.94c-1.19-1.01-2.96-0.94-4.06,0.17l-4.87,4.87
	c-1.1,1.1-1.18,2.87-0.17,4.06l7.94,9.38c-0.84,1.56-1.53,3.21-2.04,4.94L2.75,33.56C1.2,33.69,0,34.99,0,36.56v6.89
	c0,1.56,1.2,2.86,2.75,2.99l12.25,1.02c0.52,1.73,1.2,3.38,2.04,4.94l-7.94,9.38c-1.01,1.19-0.94,2.96,0.17,4.06l4.87,4.87
	c1.1,1.1,2.87,1.18,4.06,0.17l9.38-7.94c1.56,0.84,3.21,1.53,4.94,2.04l1.02,12.25C33.69,78.8,34.99,80,36.56,80h6.89
	c1.56,0,2.86-1.2,2.99-2.75L47.46,65c1.73-0.52,3.39-1.2,4.95-2.04l9.38,7.94c1.19,1.01,2.96,0.94,4.06-0.17l4.87-4.87
	c1.1-1.1,1.18-2.87,0.17-4.06l-7.94-9.38c0.84-1.56,1.53-3.22,2.05-4.95l12.25-1.02C78.8,46.31,80,45.01,80,43.44v-6.89
	C80,34.99,78.8,33.69,77.25,33.56z M53.67,40c0,7.26-6.12,13.15-13.66,13.15c-7.55,0-13.67-5.89-13.67-13.15
	c0-7.26,6.12-13.15,13.67-13.15C47.55,26.85,53.67,32.74,53.67,40z"/>
</svg>
