<?xml version="1.0" encoding="utf-8"?>
<!-- Generator: Adobe Illustrator 23.0.1, SVG Export Plug-In . SVG Version: 6.00 Build 0)  -->
<svg version="1.1" id="Vrstva_1" xmlns="http://www.w3.org/2000/svg" xmlns:xlink="http://www.w3.org/1999/xlink" x="0px" y="0px"
	 viewBox="0 0 90 83" style="enable-background:new 0 0 90 83;" xml:space="preserve">
<style type="text/css">
	.st0{fill:none;}
	.st1{fill:#EB008B;}
	.st2{fill:url(#Nové_políčko_vzorku_1);}
</style>
<pattern  x="-915" y="-499" width="53" height="53" patternUnits="userSpaceOnUse" id="Nové_políčko_vzorku_1" viewBox="0 -53 53 53" style="overflow:visible;">
	<g>
		<rect y="-53" class="st0" width="53" height="53"/>
		<rect y="-53" class="st1" width="53" height="53"/>
	</g>
</pattern>
<g>
	<rect x="-0.05" y="0.47" class="st0" width="90.1" height="82.05"/>
	<g>
		<ellipse class="st2" cx="45" cy="22.65" rx="19.48" ry="22.31"/>
		<path class="st2" d="M83.97,79.06c0,1.04-0.09,2.07-0.26,3.09c-0.03,0.17-0.06,0.34-0.09,0.52H6.38
			c-0.04-0.17-0.07-0.34-0.09-0.52c-0.17-1.01-0.26-2.05-0.26-3.09c0-1.04,0.09-2.07,0.26-3.09C8.53,62.73,25,52.45,45,52.45
			s36.47,10.28,38.71,23.52C83.88,76.99,83.97,78.01,83.97,79.06z"/>
	</g>
</g>
</svg>
