<?xml version="1.0" encoding="UTF-8"?>
<svg id="Layer_2" data-name="Layer 2" xmlns="http://www.w3.org/2000/svg" viewBox="0 0 162.46 221.1">
  <defs>
    <style>
      .cls-1 {
        fill: #fff;
      }

      .cls-2 {
        fill: #0db04b;
      }
    </style>
  </defs>
  <g id="Layer_1-2" data-name="Layer 1">
    <g>
      <path class="cls-2" d="m162.46,73.97c0,32.52-51.47,114.2-72.47,142.86-4.17,5.69-13.35,5.69-17.53,0C51.47,188.17,0,106.5,0,73.97,0,33.12,36.37,0,81.23,0s81.23,33.12,81.23,73.97Z"/>
      <path class="cls-1" d="m116.48,119.77c-.88-3.24-2-6.8-3.4-10.66-7.92-21.78-30.77-38.81-31.74-39.52.97.71,28.5,14.84,36.42,36.62.6,1.66,1.15,3.26,1.65,4.8,2.22-12.01.51-29.03-2.87-36.85-10.71-24.77-33.81-31.39-46.05-39.47-7.98-5.26-13.64-10.73-17.02-14.31-4.27,7.66-26.51,67.06,5.8,92.86,14.16,11.31,45.42,13.23,52.81,10.58,2.98,12.18,2.37,18.84,2.36,18.93l5.22.58c.02-.15.13-1.31.09-3.41-.08-3.77-.67-10.58-3.28-20.14Z"/>
    </g>
  </g>
</svg>