<?xml version="1.0" encoding="UTF-8"?>
<svg id="Layer_2" data-name="Layer 2" xmlns="http://www.w3.org/2000/svg" viewBox="0 0 162.46 221.1">
  <defs>
    <style>
      .cls-1 {
        fill: #fff;
      }

      .cls-2 {
        fill: #eb008b;
      }
    </style>
  </defs>
  <g id="Layer_1-2" data-name="Layer 1">
    <g>
      <path class="cls-2" d="m162.46,73.97c0,32.52-51.47,114.2-72.47,142.86-4.17,5.69-13.35,5.69-17.53,0C51.47,188.17,0,106.5,0,73.97,0,33.12,36.37,0,81.23,0s81.23,33.12,81.23,73.97Z"/>
      <g>
        <path class="cls-1" d="m65.62,87.77c9.13,13,13.03,27.65,11.77,40.14-26.49-1.96-47.39-24.09-47.39-51.08,0-4.77.65-9.39,1.87-13.77,1.06.27,2.13.58,3.21.93,5.82,1.92,11.44,5.01,16.62,9.03,5.17,4.03,9.9,9.01,13.92,14.76Z"/>
        <path class="cls-1" d="m129.57,93.79c-6.65,18.96-24.14,32.83-45.05,34.15.14-1.56.21-3.14.21-4.73,0-12.85-4.38-26.95-13.23-39.56-8.93-12.74-21.06-22.14-34.17-26.48-1.01-.34-2.03-.64-3.04-.91,7.92-18.05,25.96-30.66,46.93-30.66.17,0,.34,0,.51,0-.5,13.38,3.86,28.32,13.18,41.61,9.33,13.3,21.89,22.48,34.65,26.57Z"/>
        <path class="cls-1" d="m132.46,76.83c0,3.46-.34,6.84-1,10.11-11.16-3.67-22.31-11.94-30.65-23.84-8.35-11.9-12.33-25.19-11.98-36.93,24.7,3.66,43.63,24.95,43.63,50.66Z"/>
      </g>
    </g>
  </g>
</svg>