<?xml version="1.0" encoding="UTF-8"?>
<svg id="Layer_2" data-name="Layer 2" xmlns="http://www.w3.org/2000/svg" viewBox="0 0 162.46 221.1">
  <defs>
    <style>
      .cls-1 {
        fill: #fff;
      }

      .cls-2 {
        fill: #3c9bd5;
      }
    </style>
  </defs>
  <g id="Layer_1-2" data-name="Layer 1">
    <g>
      <path class="cls-2" d="m162.46,73.97c0,32.52-51.47,114.2-72.47,142.86-4.17,5.69-13.35,5.69-17.53,0C51.47,188.17,0,106.5,0,73.97,0,33.12,36.37,0,81.23,0s81.23,33.12,81.23,73.97Z"/>
      <g>
        <rect class="cls-1" x="32.81" y="98.39" width="96.84" height="14.99"/>
        <polygon class="cls-1" points="56.47 43.68 56.47 48.2 43.25 53.81 43.25 43.68 56.47 43.68"/>
        <polygon class="cls-1" points="43.25 59.62 56.47 54.02 56.47 93.72 43.25 93.72 43.25 59.62"/>
        <polygon class="cls-1" points="87.83 35.27 87.83 40.5 81.23 37.71 74.62 40.51 74.62 35.27 87.83 35.27"/>
        <polygon class="cls-1" points="81.23 43.53 87.83 46.32 87.83 93.72 74.62 93.72 74.62 46.33 81.23 43.53"/>
        <polygon class="cls-1" points="119.2 43.68 119.2 53.8 105.99 48.2 105.99 43.68 119.2 43.68"/>
        <polygon class="cls-1" points="105.99 54.01 119.2 59.61 119.2 93.72 105.99 93.72 105.99 54.01"/>
        <polygon class="cls-1" points="129.65 43.88 129.65 58.23 119.2 53.8 105.99 48.2 87.83 40.5 81.23 37.71 74.62 40.51 56.47 48.2 43.25 53.81 32.81 58.23 32.81 43.88 81.23 23.37 129.65 43.88"/>
      </g>
    </g>
  </g>
</svg>