<?xml version="1.0" encoding="utf-8"?>
<!-- Generator: Adobe Illustrator 23.0.1, SVG Export Plug-In . SVG Version: 6.00 Build 0)  -->
<svg version="1.1" id="Vrstva_1" xmlns="http://www.w3.org/2000/svg" xmlns:xlink="http://www.w3.org/1999/xlink" x="0px" y="0px"
	 viewBox="0 0 90 83" style="enable-background:new 0 0 90 83;" xml:space="preserve">
<style type="text/css">
	.st0{fill:none;}
	.st1{fill:#EB008B;}
	.st2{fill:url(#Nové_políčko_vzorku_1);}
</style>
<pattern  x="-915" y="-499" width="53" height="53" patternUnits="userSpaceOnUse" id="Nové_políčko_vzorku_1" viewBox="0 -53 53 53" style="overflow:visible;">
	<g>
		<rect y="-53" class="st0" width="53" height="53"/>
		<rect y="-53" class="st1" width="53" height="53"/>
	</g>
</pattern>
<g>
	<rect x="-0.05" y="0.21" class="st0" width="90.1" height="82.05"/>
</g>
<g>
	<rect x="-0.1" y="0.47" class="st0" width="90.1" height="82.05"/>
	<g>
		<path class="st2" d="M82.1,24.05h-9c-4.42,0-8,3.58-8,8v50.42h25V32.05C90.1,27.63,86.52,24.05,82.1,24.05z"/>
		<path class="st2" d="M7.9,17.43h9c4.42,0,8,3.58,8,8v57.03h-25V25.43C-0.1,21.02,3.48,17.43,7.9,17.43z"/>
		<path class="st2" d="M40.44,0.54h9c4.42,0,8,3.58,8,8v73.93h-25V8.54C32.44,4.12,36.03,0.54,40.44,0.54z"/>
	</g>
</g>
</svg>
